<?xml version="1.0" encoding="UTF-8" standalone="no"?>
<!-- Created with Inkscape (http://www.inkscape.org/) -->

<svg
   width="485.29156"
   height="757.28186"
   id="svg5214"
   version="1.1"
   inkscape:version="1.3.2 (091e20e, 2023-11-25, custom)"
   sodipodi:docname="Coat_of_arms_of_waterriver.svg"
   xmlns:inkscape="http://www.inkscape.org/namespaces/inkscape"
   xmlns:sodipodi="http://sodipodi.sourceforge.net/DTD/sodipodi-0.dtd"
   xmlns:xlink="http://www.w3.org/1999/xlink"
   xmlns="http://www.w3.org/2000/svg"
   xmlns:svg="http://www.w3.org/2000/svg"
   xmlns:rdf="http://www.w3.org/1999/02/22-rdf-syntax-ns#"
   xmlns:cc="http://creativecommons.org/ns#"
   xmlns:dc="http://purl.org/dc/elements/1.1/">
  <defs
     id="defs5216">
    <linearGradient
       id="linearGradient4070-8-2-8-8-7">
      <stop
         id="stop4072-1-2-6-4-1"
         offset="0"
         style="stop-color:#a3a3a3;stop-opacity:1;" />
      <stop
         id="stop4074-8-0-7-0-4"
         offset="0.14285725"
         style="stop-color:#b0b0b0;stop-opacity:1;" />
      <stop
         style="stop-color:#d1d1d1;stop-opacity:1;"
         offset="0.32142863"
         id="stop4076-6-1-0-3-7" />
      <stop
         id="stop4078-0-2-8-7-6"
         offset="0.5"
         style="stop-color:#bdbdbd;stop-opacity:1;" />
      <stop
         style="stop-color:#e5e5e5;stop-opacity:1;"
         offset="0.75"
         id="stop4080-2-7-1-8-8" />
      <stop
         id="stop4082-4-7-8-3-2"
         offset="0.875"
         style="stop-color:#cccccc;stop-opacity:1;" />
      <stop
         style="stop-color:#cccccc;stop-opacity:1;"
         offset="1"
         id="stop4084-9-0-3-1-3" />
    </linearGradient>
    <linearGradient
       gradientTransform="matrix(-1.0469992,0,0,1.1300406,-1540.3059,-455.84195)"
       gradientUnits="userSpaceOnUse"
       y2="660.96735"
       x2="-1076.8104"
       y1="660.96735"
       x1="-1495.2908"
       id="linearGradient22622-5"
       xlink:href="#linearGradient4053-4-9-3-1-7-2-4-5-0-3"
       inkscape:collect="always" />
    <linearGradient
       id="linearGradient4053-4-9-3-1-7-2-4-5-0-3">
      <stop
         style="stop-color:#cc992d;stop-opacity:1;"
         offset="0"
         id="stop4055-9-5-8-3-0-0-0-1-9-9" />
      <stop
         style="stop-color:#e1a832;stop-opacity:1;"
         offset="0.14285725"
         id="stop4057-8-8-5-6-8-8-0-0-4-1" />
      <stop
         id="stop4059-2-9-9-4-1-7-5-3-4-2"
         offset="0.32142863"
         style="stop-color:#e5cf5c;stop-opacity:1;" />
      <stop
         style="stop-color:#e5c547;stop-opacity:1;"
         offset="0.5"
         id="stop4061-4-6-3-5-8-8-9-9-3-8" />
      <stop
         id="stop4063-5-2-0-7-2-3-7-9-5-5-8"
         offset="0.75"
         style="stop-color:#ffffa3;stop-opacity:1;" />
      <stop
         style="stop-color:#ffd94d;stop-opacity:1;"
         offset="0.875"
         id="stop4065-2-5-2-2-0-3-5-8-8-1" />
      <stop
         id="stop4067-9-7-5-0-3-0-3-9-4-8"
         offset="1"
         style="stop-color:#ffdb4e;stop-opacity:1;" />
    </linearGradient>
    <radialGradient
       gradientUnits="userSpaceOnUse"
       gradientTransform="matrix(1,0,0,0.96250003,-460.72947,32.906856)"
       r="7.0710678"
       fy="877.51678"
       fx="-1439.8462"
       cy="877.51678"
       cx="-1439.8462"
       id="radialGradient22753-1-6"
       xlink:href="#linearGradient22745-9-0"
       inkscape:collect="always" />
    <linearGradient
       id="linearGradient22745-9-0"
       inkscape:collect="always">
      <stop
         id="stop22747-0-2"
         offset="0"
         style="stop-color:#ffffff;stop-opacity:1;" />
      <stop
         id="stop22749-4-4"
         offset="1"
         style="stop-color:#ffffff;stop-opacity:0;" />
    </linearGradient>
    <radialGradient
       gradientUnits="userSpaceOnUse"
       gradientTransform="matrix(1,0,0,0.96250003,-647.07972,-95.40745)"
       r="7.0710678"
       fy="877.51678"
       fx="-1439.8462"
       cy="877.51678"
       cx="-1439.8462"
       id="radialGradient22753-9-9"
       xlink:href="#linearGradient22745-7-0"
       inkscape:collect="always" />
    <linearGradient
       id="linearGradient22745-7-0"
       inkscape:collect="always">
      <stop
         id="stop22747-09-2"
         offset="0"
         style="stop-color:#ffffff;stop-opacity:1;" />
      <stop
         id="stop22749-3-2"
         offset="1"
         style="stop-color:#ffffff;stop-opacity:0;" />
    </linearGradient>
    <radialGradient
       gradientUnits="userSpaceOnUse"
       gradientTransform="matrix(1,0,0,0.96250003,647.07972,161.22116)"
       r="7.0710678"
       fy="877.51678"
       fx="-1439.8462"
       cy="877.51678"
       cx="-1439.8462"
       id="radialGradient22753-9-1-1"
       xlink:href="#linearGradient22745-7-3-5"
       inkscape:collect="always" />
    <linearGradient
       id="linearGradient22745-7-3-5"
       inkscape:collect="always">
      <stop
         id="stop22747-09-5-4"
         offset="0"
         style="stop-color:#ffffff;stop-opacity:1;" />
      <stop
         id="stop22749-3-6-4"
         offset="1"
         style="stop-color:#ffffff;stop-opacity:0;" />
    </linearGradient>
    <radialGradient
       gradientUnits="userSpaceOnUse"
       gradientTransform="matrix(1,0,0,0.96250003,-706.37478,32.906856)"
       r="7.0710678"
       fy="877.51678"
       fx="-1439.8462"
       cy="877.51678"
       cx="-1439.8462"
       id="radialGradient22753-1-9-1-5-4"
       xlink:href="#linearGradient22745-9-8-3-7-2"
       inkscape:collect="always" />
    <linearGradient
       id="linearGradient22745-9-8-3-7-2"
       inkscape:collect="always">
      <stop
         id="stop22747-0-8-6-3-5"
         offset="0"
         style="stop-color:#ffffff;stop-opacity:1;" />
      <stop
         id="stop22749-4-3-2-3-0"
         offset="1"
         style="stop-color:#ffffff;stop-opacity:0;" />
    </linearGradient>
    <radialGradient
       gradientUnits="userSpaceOnUse"
       gradientTransform="matrix(1,0,0,0.96250003,-706.37478,32.906856)"
       r="7.0710678"
       fy="877.51678"
       fx="-1439.8462"
       cy="877.51678"
       cx="-1439.8462"
       id="radialGradient22753-1-9-19-9-4"
       xlink:href="#linearGradient22745-9-8-8-0-2"
       inkscape:collect="always" />
    <linearGradient
       id="linearGradient22745-9-8-8-0-2"
       inkscape:collect="always">
      <stop
         id="stop22747-0-8-1-4-1"
         offset="0"
         style="stop-color:#ffffff;stop-opacity:1;" />
      <stop
         id="stop22749-4-3-3-8-2"
         offset="1"
         style="stop-color:#ffffff;stop-opacity:0;" />
    </linearGradient>
    <radialGradient
       gradientUnits="userSpaceOnUse"
       gradientTransform="matrix(1,0,0,0.96250003,-706.37478,32.906856)"
       r="7.0710678"
       fy="877.51678"
       fx="-1439.8462"
       cy="877.51678"
       cx="-1439.8462"
       id="radialGradient22753-1-9-3-3-7"
       xlink:href="#linearGradient22745-9-8-9-3-7"
       inkscape:collect="always" />
    <linearGradient
       id="linearGradient22745-9-8-9-3-7"
       inkscape:collect="always">
      <stop
         id="stop22747-0-8-2-5-9"
         offset="0"
         style="stop-color:#ffffff;stop-opacity:1;" />
      <stop
         id="stop22749-4-3-7-2-5"
         offset="1"
         style="stop-color:#ffffff;stop-opacity:0;" />
    </linearGradient>
    <radialGradient
       gradientUnits="userSpaceOnUse"
       gradientTransform="matrix(1,0,0,0.96250003,-706.37478,32.906856)"
       r="7.0710678"
       fy="877.51678"
       fx="-1439.8462"
       cy="877.51678"
       cx="-1439.8462"
       id="radialGradient22753-1-9-7-0-5"
       xlink:href="#linearGradient22745-9-8-6-9-4"
       inkscape:collect="always" />
    <linearGradient
       id="linearGradient22745-9-8-6-9-4"
       inkscape:collect="always">
      <stop
         id="stop22747-0-8-17-2-0"
         offset="0"
         style="stop-color:#ffffff;stop-opacity:1;" />
      <stop
         id="stop22749-4-3-30-1-3"
         offset="1"
         style="stop-color:#ffffff;stop-opacity:0;" />
    </linearGradient>
    <radialGradient
       gradientUnits="userSpaceOnUse"
       gradientTransform="matrix(1,0,0,0.96250003,-706.37478,32.906856)"
       r="7.0710678"
       fy="877.51678"
       fx="-1439.8462"
       cy="877.51678"
       cx="-1439.8462"
       id="radialGradient22753-1-9-2-1-4"
       xlink:href="#linearGradient22745-9-8-5-3-1"
       inkscape:collect="always" />
    <linearGradient
       id="linearGradient22745-9-8-5-3-1"
       inkscape:collect="always">
      <stop
         id="stop22747-0-8-60-8-2"
         offset="0"
         style="stop-color:#ffffff;stop-opacity:1;" />
      <stop
         id="stop22749-4-3-72-5-2"
         offset="1"
         style="stop-color:#ffffff;stop-opacity:0;" />
    </linearGradient>
    <radialGradient
       gradientUnits="userSpaceOnUse"
       gradientTransform="matrix(1,0,0,0.96250003,-706.37478,32.906856)"
       r="7.0710678"
       fy="877.51678"
       fx="-1439.8462"
       cy="877.51678"
       cx="-1439.8462"
       id="radialGradient22753-1-9-5-6-9"
       xlink:href="#linearGradient22745-9-8-4-1-8"
       inkscape:collect="always" />
    <linearGradient
       id="linearGradient22745-9-8-4-1-8"
       inkscape:collect="always">
      <stop
         id="stop22747-0-8-3-5-2"
         offset="0"
         style="stop-color:#ffffff;stop-opacity:1;" />
      <stop
         id="stop22749-4-3-25-4-2"
         offset="1"
         style="stop-color:#ffffff;stop-opacity:0;" />
    </linearGradient>
    <radialGradient
       gradientUnits="userSpaceOnUse"
       gradientTransform="matrix(1,0,0,0.96250003,-706.37478,32.906856)"
       r="7.0710678"
       fy="877.51678"
       fx="-1439.8462"
       cy="877.51678"
       cx="-1439.8462"
       id="radialGradient22753-1-9-15-1-7"
       xlink:href="#linearGradient22745-9-8-7-2-8"
       inkscape:collect="always" />
    <linearGradient
       id="linearGradient22745-9-8-7-2-8"
       inkscape:collect="always">
      <stop
         id="stop22747-0-8-5-9-5"
         offset="0"
         style="stop-color:#ffffff;stop-opacity:1;" />
      <stop
         id="stop22749-4-3-79-5-8"
         offset="1"
         style="stop-color:#ffffff;stop-opacity:0;" />
    </linearGradient>
    <radialGradient
       gradientUnits="userSpaceOnUse"
       gradientTransform="matrix(1,0,0,0.96250003,-706.37478,32.906856)"
       r="7.0710678"
       fy="877.51678"
       fx="-1439.8462"
       cy="877.51678"
       cx="-1439.8462"
       id="radialGradient22753-1-9-27-8-3"
       xlink:href="#linearGradient22745-9-8-93-7-9"
       inkscape:collect="always" />
    <linearGradient
       id="linearGradient22745-9-8-93-7-9"
       inkscape:collect="always">
      <stop
         id="stop22747-0-8-63-6-4"
         offset="0"
         style="stop-color:#ffffff;stop-opacity:1;" />
      <stop
         id="stop22749-4-3-8-5-4"
         offset="1"
         style="stop-color:#ffffff;stop-opacity:0;" />
    </linearGradient>
    <radialGradient
       gradientUnits="userSpaceOnUse"
       gradientTransform="matrix(1,0,0,0.96250003,-266.07328,66.978803)"
       r="7.0710678"
       fy="877.51678"
       fx="-1439.8462"
       cy="877.51678"
       cx="-1439.8462"
       id="radialGradient22753-1-9-15-2-0-3-6"
       xlink:href="#linearGradient22745-9-8-7-1-4-2-98"
       inkscape:collect="always" />
    <linearGradient
       id="linearGradient22745-9-8-7-1-4-2-98"
       inkscape:collect="always">
      <stop
         id="stop22747-0-8-5-1-4-3-5"
         offset="0"
         style="stop-color:#ffffff;stop-opacity:1;" />
      <stop
         id="stop22749-4-3-79-0-9-0-6"
         offset="1"
         style="stop-color:#ffffff;stop-opacity:0;" />
    </linearGradient>
    <radialGradient
       gradientUnits="userSpaceOnUse"
       gradientTransform="matrix(1,0,0,0.96250003,266.07328,-1.1650914)"
       r="7.0710678"
       fy="877.51678"
       fx="-1439.8462"
       cy="877.51678"
       cx="-1439.8462"
       id="radialGradient22753-1-9-15-2-0-3-1-6"
       xlink:href="#linearGradient22745-9-8-7-1-4-2-9-0"
       inkscape:collect="always" />
    <linearGradient
       id="linearGradient22745-9-8-7-1-4-2-9-0"
       inkscape:collect="always">
      <stop
         id="stop22747-0-8-5-1-4-3-8-7"
         offset="0"
         style="stop-color:#ffffff;stop-opacity:1;" />
      <stop
         id="stop22749-4-3-79-0-9-0-8-2"
         offset="1"
         style="stop-color:#ffffff;stop-opacity:0;" />
    </linearGradient>
    <radialGradient
       gradientUnits="userSpaceOnUse"
       gradientTransform="matrix(1,0,0,0.44117645,-460.72947,390.00948)"
       r="21.036427"
       fy="697.91168"
       fx="-2521.0125"
       cy="697.91168"
       cx="-2521.0125"
       id="radialGradient23408-3-7"
       xlink:href="#linearGradient23402-2-2"
       inkscape:collect="always" />
    <linearGradient
       id="linearGradient23402-2-2"
       inkscape:collect="always">
      <stop
         id="stop23404-8-6"
         offset="0"
         style="stop-color:#ffffff;stop-opacity:1;" />
      <stop
         id="stop23406-3-4"
         offset="1"
         style="stop-color:#ffffff;stop-opacity:0;" />
    </linearGradient>
    <radialGradient
       gradientUnits="userSpaceOnUse"
       gradientTransform="matrix(1,0,0,0.44117645,-457.45963,444.8029)"
       r="21.036427"
       fy="697.91168"
       fx="-2521.0125"
       cy="697.91168"
       cx="-2521.0125"
       id="radialGradient23408-1-7"
       xlink:href="#linearGradient23402-21-1"
       inkscape:collect="always" />
    <linearGradient
       id="linearGradient23402-21-1"
       inkscape:collect="always">
      <stop
         id="stop23404-0-3"
         offset="0"
         style="stop-color:#ffffff;stop-opacity:1;" />
      <stop
         id="stop23406-7-2"
         offset="1"
         style="stop-color:#ffffff;stop-opacity:0;" />
    </linearGradient>
    <linearGradient
       inkscape:collect="always"
       xlink:href="#linearGradient4070-8-2-8-8-7"
       id="linearGradient4487"
       x1="1077.7694"
       y1="-500.20889"
       x2="1522.7697"
       y2="-500.20889"
       gradientUnits="userSpaceOnUse"
       gradientTransform="matrix(-1,0,0,1,2600.539,0)" />
    <linearGradient
       id="linearGradient5101">
      <stop
         id="stop5103"
         offset="0"
         style="stop-color:#a3a3a3;stop-opacity:1;" />
      <stop
         id="stop5105"
         offset="0.14285725"
         style="stop-color:#b0b0b0;stop-opacity:1;" />
      <stop
         style="stop-color:#d1d1d1;stop-opacity:1;"
         offset="0.32142863"
         id="stop5107" />
      <stop
         id="stop5109"
         offset="0.5"
         style="stop-color:#bdbdbd;stop-opacity:1;" />
      <stop
         style="stop-color:#e5e5e5;stop-opacity:1;"
         offset="0.75"
         id="stop5111" />
      <stop
         id="stop5113"
         offset="0.875"
         style="stop-color:#cccccc;stop-opacity:1;" />
      <stop
         style="stop-color:#cccccc;stop-opacity:1;"
         offset="1"
         id="stop5115" />
    </linearGradient>
    <linearGradient
       id="linearGradient4053-4">
      <stop
         id="stop4055-9"
         offset="0"
         style="stop-color:#cc992d;stop-opacity:1;" />
      <stop
         id="stop4057-8"
         offset="0.14285725"
         style="stop-color:#e1a832;stop-opacity:1;" />
      <stop
         style="stop-color:#e5cf5c;stop-opacity:1;"
         offset="0.32142863"
         id="stop4059-2" />
      <stop
         id="stop4061-4"
         offset="0.5"
         style="stop-color:#e5c547;stop-opacity:1;" />
      <stop
         style="stop-color:#ffffa3;stop-opacity:1;"
         offset="0.75"
         id="stop4063-5" />
      <stop
         id="stop4065-2"
         offset="0.875"
         style="stop-color:#ffd94d;stop-opacity:1;" />
      <stop
         style="stop-color:#ffdb4e;stop-opacity:1;"
         offset="1"
         id="stop4067-9" />
    </linearGradient>
    <linearGradient
       inkscape:collect="always"
       xlink:href="#linearGradient4070-9-0-5"
       id="linearGradient5702"
       x1="309.28571"
       y1="148.85265"
       x2="320.71429"
       y2="148.85265"
       gradientUnits="userSpaceOnUse" />
    <linearGradient
       id="linearGradient4070-9-0-5">
      <stop
         id="stop4072-5-5-3"
         offset="0"
         style="stop-color:#a3a3a3;stop-opacity:1;" />
      <stop
         id="stop4074-5-2-2"
         offset="0.14285725"
         style="stop-color:#b0b0b0;stop-opacity:1;" />
      <stop
         style="stop-color:#d1d1d1;stop-opacity:1;"
         offset="0.32142863"
         id="stop4076-40-4-9" />
      <stop
         id="stop4078-3-2-7"
         offset="0.5"
         style="stop-color:#bdbdbd;stop-opacity:1;" />
      <stop
         style="stop-color:#e5e5e5;stop-opacity:1;"
         offset="0.75"
         id="stop4080-4-3-3" />
      <stop
         id="stop4082-1-8-7"
         offset="0.875"
         style="stop-color:#cccccc;stop-opacity:1;" />
      <stop
         style="stop-color:#cccccc;stop-opacity:1;"
         offset="1"
         id="stop4084-2-5-4" />
    </linearGradient>
    <linearGradient
       inkscape:collect="always"
       xlink:href="#linearGradient4070-9-0-5"
       id="linearGradient4966"
       x1="79.645767"
       y1="671.83881"
       x2="606.46832"
       y2="674.86926"
       gradientUnits="userSpaceOnUse" />
  </defs>
  <sodipodi:namedview
     id="base"
     pagecolor="#ffffff"
     bordercolor="#666666"
     borderopacity="1.0"
     inkscape:pageopacity="0.0"
     inkscape:pageshadow="2"
     inkscape:zoom="0.7"
     inkscape:cx="268.57143"
     inkscape:cy="392.14286"
     inkscape:document-units="px"
     inkscape:current-layer="layer1"
     showgrid="false"
     fit-margin-top="0"
     fit-margin-left="0"
     fit-margin-right="0"
     fit-margin-bottom="0"
     inkscape:window-width="1920"
     inkscape:window-height="991"
     inkscape:window-x="-9"
     inkscape:window-y="-9"
     inkscape:window-maximized="1"
     inkscape:showpageshadow="2"
     inkscape:pagecheckerboard="0"
     inkscape:deskcolor="#d1d1d1" />
  <metadata
     id="metadata5219">
    <rdf:RDF>
      <cc:Work
         rdf:about="">
        <dc:format>image/svg+xml</dc:format>
        <dc:type
           rdf:resource="http://purl.org/dc/dcmitype/StillImage" />
      </cc:Work>
    </rdf:RDF>
  </metadata>
  <g
     inkscape:label="Laag 1"
     inkscape:groupmode="layer"
     id="layer1"
     transform="translate(-143.0685,-59.435529)">
    <g
       id="g1"
       transform="translate(1.7507052,-88.571429)">
      <path
         style="fill:url(#linearGradient4966);fill-opacity:1"
         d="m 381.25501,813.68406 c -10.6989,-10.16225 -27.5762,-18.13296 -53.3069,-25.17571 -12.031,-3.29307 -23.7672,-5.87671 -54.5835,-12.01646 -29.72429,-5.92217 -41.05549,-8.5004 -55.26459,-12.57453 -8.7237,-2.50118 -12.1177,-3.73393 -17.8327,-6.477 -7.6085,-3.65176 -12.4578,-6.95004 -17.9553,-12.21251 -11.2813,-10.79889 -17.177,-22.95788 -20.106,-41.46529 -0.4786,-3.02433 -0.5372,-11.06061 -0.6327,-86.73977 l -0.1052,-83.40676 h 222.50009 222.5001 l -0.1052,83.40676 c -0.1124,89.09377 -0.027,83.93739 -1.5178,91.97747 -4.8597,26.21441 -22.2126,45.02415 -49.1463,53.27232 -15.9588,4.88727 -27.6589,7.61553 -62.7233,14.62621 -12.6403,2.52718 -25.9272,5.23751 -29.5261,6.02284 -40.4267,8.82152 -62.2184,17.54643 -76.6634,30.69439 -1.5223,1.38563 -2.8151,2.51362 -2.8728,2.5065 -0.058,-0.009 -1.254,-1.10445 -2.6584,-2.43846 z"
         id="path3845"
         inkscape:connector-curvature="0" />
      <path
         style="fill:#005bce;fill-opacity:1"
         d="m 381.27331,814.11326 c -9.3126,-8.94497 -23.3538,-16.1851 -43.4199,-22.389 -15.7809,-4.8791 -26.9413,-7.46806 -64.6551,-14.99903 -11.4143,-2.27933 -21.0203,-4.25718 -21.3466,-4.39525 -0.3811,-0.16122 1.1031,-0.45169 4.1507,-0.81247 2.6092,-0.30887 9.7008,-1.3341 15.7592,-2.27837 19.086,-2.9747 29.593,-3.89554 40.3894,-3.53979 10.8128,0.35623 17.5294,1.20172 30.9706,3.89848 16.6254,3.33558 24.0132,4.11076 36.558,3.83557 12.6404,-0.27728 24.2288,-1.55729 43.4828,-4.80281 14.9404,-2.51845 18.6211,-2.86396 30.5911,-2.87174 13.206,-0.009 16.6908,0.3586 36.0791,3.80169 5.356,0.95111 12.037,2.02511 14.8467,2.38665 2.8097,0.36154 5.8988,0.76208 6.8647,0.89009 1.6286,0.21598 0.4477,0.49354 -16.2835,3.82722 -29.5887,5.89549 -41.9055,8.60041 -53.959,11.84983 -26.7043,7.19904 -43.7249,15.17933 -54.6004,25.59998 l -2.7167,2.6031 z m -12.609,-76.70543 c -4.4626,-0.24017 -11.9029,-1.11091 -15.8046,-1.84946 -2.195,-0.41553 -7.7985,-1.47985 -12.452,-2.36511 -14.0979,-2.68204 -22.0625,-3.53627 -32.9701,-3.53627 -10.7653,0 -19.2492,0.80982 -35.1951,3.35968 -11.4523,1.83124 -14.2705,2.22248 -21.518,2.98732 -12.90099,1.36162 -25.06919,1.52265 -35.63579,0.47162 -5.1082,-0.50806 -6.4121,-0.71777 -19.3167,-3.10755 -9.265,-1.71576 -17.2353,-2.85419 -22.7594,-3.25065 l -2.8039,-0.20127 -0.9083,-1.79878 c -2.4913,-4.93424 -5.1483,-12.92782 -6.2385,-18.76847 -0.7468,-4.00105 -1.4533,-10.08245 -1.4533,-12.51047 v -2.15568 h 4.5498 c 8.9974,0.009 18.1661,1.07903 32.784,3.82959 15.8825,2.98846 23.224,3.66922 36.3812,3.37344 12.158,-0.27329 19.18209,-1.00719 38.35619,-4.00751 22.3339,-3.49481 34.7623,-4.17424 49.6461,-2.71394 6.3178,0.61984 9.8375,1.18056 20.9132,3.3314 17.7199,3.4411 22.9909,3.98417 36.0791,3.71724 12.9683,-0.26447 23.8206,-1.45651 43.7419,-4.8048 14.7228,-2.47443 18.634,-2.84033 30.4916,-2.85219 12.8091,-0.0123 16.4623,0.36771 34.802,3.62443 18.9442,3.36413 24.2825,3.91138 38.1544,3.91138 13.8706,0 19.3601,-0.53728 36.7177,-3.59368 11.961,-2.10615 18.4661,-3.01247 25.0638,-3.49196 5.449,-0.39599 16.1187,-0.42161 16.7234,-0.0399 0.3476,0.2193 0.394,0.8678 0.2212,3.09512 -0.8887,11.45583 -2.9782,20.03708 -6.8989,28.33299 -1.4975,3.16856 -1.5696,3.25909 -2.6001,3.26213 -6.2569,0.018 -17.3312,1.12182 -25.6448,2.55584 -22.36,3.85691 -24.4258,4.162 -32.1809,4.75213 -5.7349,0.43642 -19.7051,0.43262 -25.3329,-0.009 -6.7277,-0.52532 -13.0905,-1.40004 -23.1054,-3.17653 -22.2342,-3.94393 -22.4915,-3.97145 -37.037,-3.95599 -13.8874,0.0142 -16.015,0.20611 -31.7687,2.85884 -15.5321,2.61534 -19.7442,3.18545 -30.3325,4.10572 -5.512,0.47902 -18.5968,0.83383 -22.6687,0.61462 z m 0,-71.21854 c -5.5991,-0.30195 -12.0417,-1.2319 -22.8288,-3.29505 -19.9566,-3.81707 -28.2704,-4.68809 -41.507,-4.34856 -10.6679,0.27357 -16.8291,0.92663 -32.2477,3.41823 -19.8375,3.20566 -33.88769,4.40397 -46.45569,3.96224 -10.0192,-0.35224 -12.9911,-0.73893 -30.332,-3.94744 -12.0514,-2.22989 -17.8544,-2.9245 -26.5006,-3.17246 l -7.3435,-0.21056 v -16.05643 -16.05633 l 6.7049,0.0702 c 11.1177,0.11691 17.4202,0.83136 33.0459,3.74618 11.5533,2.1552 17.8912,2.95021 26.5149,3.3259 13.6244,0.59345 25.17099,-0.39087 49.79399,-4.24494 15.3876,-2.40847 22.6315,-3.05706 34.13,-3.05564 11.8738,0 18.3105,0.72508 34.0371,3.82703 21.7615,4.29218 31.8216,4.86875 52.0434,2.98276 7.2458,-0.67583 15.338,-1.79983 27.2988,-3.79173 15.0782,-2.51105 17.2893,-2.73566 28.831,-2.92962 14.2677,-0.2397 19.2112,0.22518 37.8101,3.55525 17.9011,3.2052 25.2287,3.97278 37.9243,3.97288 12.8644,1.9e-4 20.7027,-0.79482 37.516,-3.80482 5.0047,-0.89598 11.6526,-1.9714 14.773,-2.38978 6.0723,-0.81409 21.3538,-1.66376 23.3196,-1.29652 l 1.1793,0.22034 v 16.0383 16.0383 l -8.0619,-0.019 c -11.6213,-0.0266 -15.896,0.42142 -33.6047,3.52461 -18.4428,3.23176 -24.4591,3.8534 -37.5158,3.87617 -13.3112,0.0228 -20.1651,-0.68408 -38.7931,-4.00324 -18.6569,-3.32428 -20.6708,-3.53191 -34.1633,-3.52251 -13.1699,0.009 -16.2669,0.27595 -29.8531,2.57131 -15.8877,2.68414 -21.3039,3.43227 -31.9285,4.41023 -5.1906,0.47779 -19.4252,0.83933 -23.7866,0.60409 z m -1.5964,-68.49341 c -4.6853,-0.3809 -8.6574,-1.0032 -18.1992,-2.85134 -11.7248,-2.27097 -14.4798,-2.74809 -19.9553,-3.45637 -16.8551,-2.18016 -30.3783,-1.60758 -54.5976,2.31168 -20.0527,3.24496 -31.02359,4.20176 -44.85799,3.91205 -8.6272,-0.18067 -14.4239,-0.65618 -19.797,-1.6238 -1.4049,-0.25299 -6.4336,-1.18389 -11.1749,-2.06848 -13.8477,-2.58374 -22.3975,-3.51995 -32.1679,-3.52251 h -5.0287 v -15.39759 -15.39758 l 1.7908,-0.22281 c 1.9919,-0.24786 10.9898,0.0285 16.8874,0.51868 5.9341,0.49316 12.262,1.43317 22.3498,3.32021 11.8287,2.21261 17.5673,2.93351 26.4618,3.32438 13.5547,0.59573 23.84489,-0.25508 47.93139,-3.96254 18.1367,-2.79174 24.0504,-3.34212 35.886,-3.34051 11.992,0 18.061,0.67858 34.1968,3.81384 13.2148,2.5677 19.3834,3.43758 27.2988,3.84951 12.8754,0.67004 29.2054,-0.77223 51.2451,-4.526 14.6019,-2.48695 17.9114,-2.82866 29.4285,-3.03837 14.3622,-0.26162 19.5767,0.23618 38.9418,3.71752 16.5995,2.98409 24.7824,3.81858 37.3055,3.80415 12.751,-0.0142 19.9814,-0.75326 37.2038,-3.80045 5.7951,-1.02532 12.8353,-2.15815 15.645,-2.51751 4.8291,-0.61747 15.5259,-1.30383 20.3213,-1.30383 h 2.1882 v 15.5795 15.5794 h -6.3059 c -5.9705,0 -13.9421,0.52514 -19.2369,1.26359 -1.317,0.18362 -7.7106,1.25458 -14.2081,2.37982 -19.8567,3.43891 -23.4171,3.80074 -37.5159,3.81307 -13.8409,0.0123 -19.5077,-0.56907 -38.3439,-3.93254 -18.5717,-3.31613 -25.9255,-4.04784 -37.486,-3.72957 -11.0919,0.30527 -15.2089,0.77233 -32.567,3.69446 -9.5361,1.60539 -16.14,2.50222 -24.7445,3.36062 -5.8591,0.58454 -23.7993,0.86324 -28.8952,0.44894 z"
         id="path3890"
         inkscape:connector-curvature="0" />
      <rect
         style="fill:#008000;fill-opacity:1;stroke:#000000"
         id="rect3892"
         width="444.99506"
         height="243.45726"
         x="161.46605"
         y="290.15765" />
      <path
         style="fill:#ffffff;fill-opacity:0.127358"
         d="m 381.23071,813.89605 c -13.8956,-13.04709 -35.7041,-21.90846 -75.3607,-30.62132 -4.3647,-0.95899 -15.6668,-3.3222 -25.1157,-5.25156 -33.88379,-6.91892 -47.12649,-9.96308 -62.77809,-14.43091 -8.3026,-2.37004 -12.7315,-4.01596 -18.4238,-6.84708 -7.253,-3.60745 -11.3792,-6.44038 -16.7256,-11.48355 -3.9881,-3.76202 -6.8474,-7.16658 -9.7359,-11.5921 -1.2483,-1.91256 -2.4205,-3.65821 -2.6049,-3.87912 -1.2878,-1.54334 -4.8355,-10.86418 -6.2609,-16.44957 -2.1095,-8.2662 -2.0496,-7.3111 -2.3228,-37.04091 -0.1375,-14.9515 -0.2778,-107.9392 -0.3119,-206.63935 l -0.062,-179.45475 1.2194,1.08605 c 0.6707,0.59725 2.2603,2.00224 3.5326,3.12216 l 2.3131,2.03611 -0.015,197.95306 c -0.01,127.88442 0.096,199.13475 0.2998,201.29156 1.2115,12.83492 4.789,23.97125 10.4528,32.53864 3.3337,5.04289 6.0189,8.27949 10.207,12.30313 5.5171,5.30043 10.0285,8.35256 18.0657,12.22229 12.0599,5.80658 31.0713,10.72269 80.55579,20.83095 35.3483,7.22068 47.2096,10.1465 63.1608,15.57987 12.6165,4.29741 24.0464,9.95018 31.1939,15.4271 l 1.9095,1.46306 v 5.04981 c 0,2.77742 -0.1078,5.11396 -0.2396,5.19225 -0.1316,0.0778 -1.4607,-1.00435 -2.9533,-2.40582 z"
         id="path3957"
         inkscape:connector-curvature="0" />
      <path
         style="fill:#000000;fill-opacity:0.117925"
         d="m 386.77681,813.83807 c 13.8957,-13.04709 35.7041,-21.90846 75.3607,-30.62132 4.3648,-0.95899 15.6669,-3.3222 25.1158,-5.25156 33.8838,-6.91892 47.1265,-9.96308 62.7781,-14.43091 8.3027,-2.37004 12.7314,-4.01596 18.4237,-6.84708 7.2531,-3.60745 11.3794,-6.44038 16.7256,-11.48364 3.9881,-3.76193 6.8475,-7.16649 9.736,-11.59201 1.2483,-1.91256 2.4205,-3.65821 2.6049,-3.87912 1.2879,-1.54334 4.8355,-10.86418 6.2608,-16.44957 2.1096,-8.2662 2.0497,-7.3111 2.3229,-37.04091 0.1375,-14.9515 0.2778,-107.9392 0.3119,-206.63935 l 0.062,-179.45475 -1.2194,1.08605 c -0.6707,0.59725 -2.2604,2.00224 -3.5326,3.12216 l -2.3131,2.03611 0.015,197.95306 c 0.01,127.88442 -0.096,199.13475 -0.2999,201.29156 -1.2115,12.83492 -4.789,23.97125 -10.4527,32.53864 -3.3337,5.04289 -6.0189,8.27949 -10.207,12.30313 -5.5171,5.30043 -10.0285,8.35256 -18.0657,12.22229 -12.0599,5.80658 -31.0713,10.72269 -80.5558,20.83095 -35.3484,7.22068 -47.2096,10.14651 -63.1608,15.57988 -12.6164,4.2974 -24.0464,9.95017 -31.194,15.42709 l -1.9093,1.46306 v 5.04981 c 0,2.77742 0.1077,5.11396 0.2394,5.19225 0.1317,0.0778 1.4607,-1.00434 2.9534,-2.40582 z"
         id="path3957-5"
         inkscape:connector-curvature="0" />
      <path
         style="fill:#ffffff;fill-opacity:0.188679;stroke:none"
         d="m 599.48391,296.31787 6.9772,-6.16025 H 161.46602 l 7.1854,6.16025 z"
         id="path3979"
         inkscape:connector-curvature="0" />
      <path
         style="fill:none;stroke:#000000;stroke-width:5.1;stroke-linecap:butt;stroke-linejoin:miter;stroke-miterlimit:4;stroke-dasharray:none;stroke-opacity:0.174528"
         d="M 161.38622,531.06536 H 605.88621"
         id="path4960"
         inkscape:connector-curvature="0" />
      <path
         style="fill:none;stroke:#fbfbfb;stroke-width:5.1;stroke-linecap:butt;stroke-linejoin:miter;stroke-miterlimit:4;stroke-dasharray:none;stroke-opacity:0.396226"
         d="M 161.51122,536.19037 H 606.01121"
         id="path4960-9"
         inkscape:connector-curvature="0" />
      <g
         id="g21"
         transform="matrix(10.432028,0,0,10.428454,-706.85999,-948.67344)"
         style="fill-rule:evenodd">
    <path
   id="_161299488"
   class="fil3"
   d="m 115.088,136.131 c 0.1601,0.0358 0.4201,-0.0651 0.5472,-0.1034 0.0873,-0.0263 0.161,-0.016 0.2111,0.0165 0.144,0.093 0.05,0.2682 -0.0553,0.3475 0.0551,0.127 -0.0392,0.2794 -0.1439,0.3471 0.0441,0.1435 -0.0575,0.2947 -0.1809,0.3606 0.0905,0.3256 -0.2253,0.6723 -0.5155,0.7426 -0.3847,0.0933 -0.8078,-0.01 -1.1994,-0.0524 -0.3333,0.3406 -0.6868,0.6562 -1.0608,0.9462 -0.3253,0.2523 -0.6667,0.4857 -1.0242,0.6998 -0.1186,0.071 -1.2335,0.8197 -1.4795,0.5903 -0.1565,-0.1458 0.1383,-0.4332 -0.0576,-0.3015 -0.0169,0.01 -0.0338,0.0196 -0.046,0.0289 l -3e-4,2e-4 v 0 l -6e-4,4e-4 v 0 0 c -0.0921,0.0709 -0.2218,0.1162 -0.3223,0.0342 -0.1138,-0.0929 -0.1068,-0.2728 -0.0694,-0.3997 0.078,-0.2639 0.0632,-0.5383 0.0805,-0.8094 0.0429,-0.6744 0.1524,-1.3013 0.3248,-1.8832 0.0914,-0.3085 0.2013,-0.605 0.3299,-0.8898 -0.3854,-0.5104 -0.5007,-1.5575 0.0367,-2.0054 0.0349,-0.0291 0.0721,-0.0533 0.1112,-0.0719 -0.009,-0.1061 0.0372,-0.2172 0.1079,-0.2948 0.0495,-0.0543 0.1172,-0.0966 0.192,-0.1002 0.0144,-0.1424 0.0901,-0.2777 0.241,-0.3065 0.0249,-0.1121 0.1763,-0.2566 0.3038,-0.2127 v -1e-4 c 0.0454,0.0157 0.0752,0.0517 0.0767,0.1123 0.009,0.3524 0.046,0.7108 0.1775,1.0399 0.1032,-0.1072 0.2105,-0.2117 0.3222,-0.3136 0.0134,-0.0123 0.0268,-0.0244 0.0402,-0.0365 l -0.0102,-0.1093 c -0.039,-0.4171 -0.0819,-0.8747 0.0197,-1.1758 0.0567,-0.168 0.2082,-0.3748 0.4095,-0.3495 0.0396,-0.1248 0.1528,-0.2584 0.2978,-0.2362 h 2e-4 c 0.0423,-0.1344 0.1285,-0.2849 0.2909,-0.2764 0.0574,-0.1101 0.1913,-0.1826 0.3034,-0.1045 0.0372,0.0259 0.0594,0.0648 0.0564,0.1055 -0.0148,0.2066 -0.0293,0.4133 -0.028,0.6107 10e-4,0.1618 0.0127,0.3188 0.0431,0.4665 0.0997,-0.069 0.1998,-0.1373 0.3001,-0.2053 -0.01,-0.3759 -0.0625,-0.8175 0.1128,-1.1565 0.0867,-0.1678 0.2287,-0.2788 0.4617,-0.243 0.0511,-0.1654 0.2277,-0.3152 0.4075,-0.2481 0.0554,-0.1304 0.1831,-0.2682 0.3385,-0.2237 l 2e-4,1e-4 c 0.0152,0.004 0.0295,0.0104 0.0427,0.0179 0.0578,-0.0738 0.1504,-0.1388 0.2471,-0.1021 0.0276,0.0105 0.0508,0.028 0.068,0.0496 l -2e-4,2e-4 c 0.0545,0.0683 0.0291,0.13 0.0139,0.2034 -0.0271,0.1307 -0.0158,0.2753 -0.002,0.4134 0.1056,-0.1052 0.2041,-0.2135 0.2932,-0.325 l 0.004,-0.005 c 0.1996,-0.251 0.3756,-0.5136 0.5272,-0.7907 0.2665,-0.4874 0.4482,-1.0238 0.5861,-1.5608 0.0598,-0.2334 0.108,-0.4759 0.1353,-0.7384 0.011,-0.1054 0.0691,-0.202 0.1863,-0.1898 0.0593,0.006 0.1218,0.041 0.1706,0.0801 l 4e-4,3e-4 c 0.1481,0.1204 0.1967,0.3085 0.1979,0.4914 0.0223,-6e-4 0.0441,0.002 0.0652,0.008 v -1e-4 c 0.1704,0.0457 0.2459,0.2554 0.2018,0.4134 0.2309,0.0938 0.2804,0.3811 0.1575,0.575 0.142,0.0941 0.1892,0.2581 0.1623,0.4006 0.1891,-0.0938 0.4194,-0.1067 0.5901,0.0266 0.1817,-0.1909 0.5244,-0.1911 0.715,-0.0138 0.1716,-0.181 0.4041,-0.1911 0.6031,-0.0445 0.1815,-0.1447 0.4871,-0.2591 0.6727,-0.0573 0.202,0.2196 -0.0151,0.388 -0.2236,0.4873 -0.2178,0.1038 -0.4499,0.1885 -0.6743,0.2751 -0.3786,0.1461 -0.8265,0.3189 -1.2378,0.541 l -1e-4,1e-4 c -0.654,0.3533 -1.1976,1.0176 -1.5879,1.7196 0.1568,-0.0243 0.3082,-0.0717 0.4533,-0.1386 0.1229,-0.0566 0.2315,-0.1066 0.3447,0.0177 0.007,0.008 0.0151,0.0173 0.0227,0.0272 h -10e-5 c 0.0772,0.1007 0.0403,0.2377 -0.002,0.3442 0.1475,0.2372 0.0709,0.5131 -0.1142,0.6984 -0.3827,0.3835 -1.0646,0.6499 -1.5137,0.9166 -0.3116,0.6888 -0.6633,1.3292 -1.0557,1.9197 z"
   inkscape:connector-curvature="0"
   style="fill:#000000;fill-rule:nonzero" />

    <path
   id="_161299560"
   class="fil5"
   d="m 110.612,135.773 c 0.4746,-0.0335 0.9555,0.0522 1.389,0.2503 0.3119,-0.2156 0.6126,-0.4471 0.9051,-0.6882 0.1477,-0.122 0.3303,-0.037 0.3883,0.1322 0.0839,0.2451 0.108,0.5047 0.1291,0.7612 0.0116,0.1407 -0.0631,0.2431 -0.1879,0.3005 -0.086,0.0395 -0.1755,0.0702 -0.2654,0.0991 l -1e-4,-1e-4 c -0.0282,0.009 -0.0567,0.0173 -0.0851,0.0258 0.3026,0.3174 0.5304,0.7042 0.6607,1.1235 0.1579,-0.1572 0.3117,-0.3203 0.4611,-0.4892 0.9441,-1.067 1.6662,-2.3142 2.2078,-3.6294 0.1664,-0.404 0.3231,-0.8237 0.5246,-1.2233 0.3848,-0.7632 0.8392,-1.3437 1.4555,-1.7731 0.4607,-0.321 1.008,-0.5205 1.5292,-0.7216 h 3e-4 c 0.0519,-0.0201 0.0784,-0.0302 0.1051,-0.0404 0.1874,-0.0717 0.3776,-0.1444 0.5578,-0.2302 h 1e-4 l 0.015,-0.007 1e-4,-10e-5 c 0.0528,-0.0249 0.1185,-0.056 0.1597,-0.0939 0.0402,-0.037 0.0556,-0.0832 0.002,-0.1415 l -10e-5,-2e-4 -6e-4,-7e-4 v 0 c -0.0177,-0.019 -0.0375,-0.0329 -0.0586,-0.0424 -0.1742,-0.0784 -0.3766,0.0895 -0.4975,0.2008 -0.2197,-0.2406 -0.4428,-0.1851 -0.6032,0.0934 -0.1782,-0.2812 -0.5442,-0.322 -0.6931,0.006 -0.2537,-0.3161 -0.5151,-0.1658 -0.8029,0.0135 0.0305,-0.2621 0.112,-0.4926 -0.2017,-0.6249 0.1627,-0.2593 0.1957,-0.4632 -0.1536,-0.5342 0.1727,-0.1966 0.0174,-0.5086 -0.2103,-0.2818 0.013,-0.2054 0.0522,-0.4676 -0.1279,-0.6142 -0.0567,-0.0452 -0.0969,-0.0867 -0.1065,0.006 -0.1296,1.0541 -0.502,2.0789 -1.0913,2.9161 -0.3034,0.431 -0.6724,0.7865 -1.0894,1.112 -0.3352,0.2617 -0.6934,0.5034 -1.0312,0.7315 -0.6221,0.42 -1.2405,0.851 -1.796,1.3579 -0.6213,0.567 -1.1293,1.245 -1.488,2.0064 z m 0.9345,-1.7082 c -0.135,-0.3181 -0.1847,-0.6642 -0.2006,-1.007 -0.004,-0.0937 0.005,-0.1612 -0.0665,-0.0202 -0.0208,0.041 -0.0262,0.0904 -0.0364,0.1368 -0.2251,-0.0267 -0.2307,0.1711 -0.2475,0.3324 -0.2301,-0.0889 -0.3047,0.1804 -0.2496,0.3144 -0.2315,0.0705 -0.3754,0.2883 -0.4412,0.5128 -0.121,0.4123 -0.0228,0.9451 0.1821,1.2844 0.276,-0.5662 0.6337,-1.0897 1.0597,-1.5536 z m 1.729,-1.4483 c -0.0585,-0.2558 -0.0606,-0.522 -0.0493,-0.7829 0.003,-0.0812 0.009,-0.1651 0.0144,-0.2499 l -1e-4,-2e-4 v -2e-4 h 1e-4 c 7e-4,-0.0112 0.003,-0.0238 0.004,-0.037 l 10e-5,1e-4 c 0.004,-0.029 0.009,-0.0613 0.003,-0.0698 -9e-4,-0.001 -0.0104,0.004 -0.036,0.0214 v 0 c -0.0457,0.0314 -0.0744,0.0859 -0.101,0.1328 -0.1802,-0.0561 -0.2422,0.1948 -0.2821,0.3217 -0.1847,-0.1358 -0.2331,0.0725 -0.2871,0.213 -0.1385,-0.0733 -0.2396,-0.0133 -0.3088,0.1175 -0.0159,0.03 -0.0298,0.063 -0.0416,0.0978 v 0 l -1e-4,4e-4 -1e-4,1e-4 c -0.0881,0.2618 -0.0516,0.6854 -0.0149,1.0778 0.3499,-0.3015 0.7209,-0.5776 1.0991,-0.8426 z m 1.9895,-1.46 c -0.0157,-0.181 -0.0432,-0.3641 -0.006,-0.5447 0.008,-0.038 0.049,-0.1034 -0.0172,-0.0754 -0.068,0.0289 -0.1161,0.0933 -0.1541,0.154 -0.1498,-0.2018 -0.2846,0.0711 -0.3583,0.2089 -0.1511,-0.1924 -0.3128,0.0565 -0.3378,0.2237 -0.0838,-0.0205 -0.1731,-0.0399 -0.2584,-0.0149 -0.0652,0.0192 -0.1208,0.0646 -0.1642,0.1485 l -3e-4,5e-4 c -0.1475,0.2859 -0.1144,0.6448 -0.1,0.9536 0.4826,-0.3261 0.969,-0.6568 1.3967,-1.0542 z m 1.0186,2.8003 c 0.3232,-0.1722 0.6571,-0.328 0.9626,-0.5315 0.1886,-0.1256 0.4974,-0.3397 0.4539,-0.6128 -0.0113,-0.0714 -0.0472,-0.1389 -0.1068,-0.1994 0.0464,-0.066 0.1408,-0.2459 0.0222,-0.2978 -0.0623,-0.0272 -0.2482,0.0777 -0.304,0.0978 -0.1349,0.0483 -0.2743,0.0811 -0.4177,0.0963 -0.2408,0.4635 -0.4037,0.9675 -0.6102,1.4474 z m -2.3676,3.6975 c 0.3275,0.045 0.6712,0.116 0.9992,0.037 0.2786,-0.067 0.5442,-0.3891 0.3648,-0.6662 0.1391,-0.067 0.2698,-0.1549 0.1876,-0.3387 0.1369,-0.0749 0.2512,-0.1739 0.1272,-0.3282 0.0587,-0.0341 0.1942,-0.1199 0.1707,-0.1824 -0.012,-0.032 -0.1299,0.007 -0.1902,0.0271 l -1e-4,1e-4 c -0.0133,0.004 -0.0242,0.008 -0.0325,0.0103 -0.159,0.0425 -0.3539,0.1007 -0.5184,0.0579 -0.3335,0.4883 -0.7029,0.9524 -1.1083,1.3831 z m -1.7325,-1.5396 c 0.1997,0.1093 0.3853,0.2417 0.5536,0.3946 0.1432,-0.04 0.288,-0.0812 0.4234,-0.1434 0.0562,-0.0258 0.0893,-0.0577 0.0839,-0.123 -0.0198,-0.2413 -0.0407,-0.4865 -0.1197,-0.7171 -0.0173,-0.0507 -0.054,-0.0942 -0.1045,-0.0524 -0.2711,0.2236 -0.5492,0.439 -0.8367,0.6413 z m 1.2167,1.8048 c -0.1282,-0.4696 -0.3858,-0.8992 -0.738,-1.235 -0.5565,-0.5302 -1.3574,-0.807 -2.1353,-0.7234 -0.0636,0.1469 -0.1219,0.2962 -0.1748,0.4472 0.6487,0.0192 1.2553,0.2955 1.7232,0.7389 0.3601,0.3412 0.652,0.7604 0.8092,1.2338 0.177,-0.1479 0.349,-0.3018 0.5157,-0.4615 z m -3.0891,1.606 c 0.1501,0.1116 -0.0762,0.3325 -0.018,0.3866 v 0 l 5e-4,5e-4 c 0.0857,0.0725 0.6768,-0.2506 1.0365,-0.4582 0.4904,-0.2833 0.9626,-0.594 1.4047,-0.9505 -0.1351,-0.4497 -0.4021,-0.852 -0.7355,-1.1803 h -1e-4 l -0.002,-0.002 v 0 c -0.009,-0.009 -0.0179,-0.0176 -0.0252,-0.0246 -0.01,-0.009 -0.0185,-0.0178 -0.0254,-0.0243 l -1e-4,-10e-5 c -0.4499,-0.4252 -1.0183,-0.6818 -1.6545,-0.6859 -0.1093,0.341 -0.1932,0.6901 -0.2542,1.0429 -0.0533,0.3078 -0.0907,0.6274 -0.1118,0.9589 v 0 2e-4 1e-4 c -0.004,0.0691 -0.007,0.1397 -0.01,0.2102 -0.008,0.2125 -0.0151,0.4243 -0.0767,0.6328 v 0 l -10e-4,0.004 v 0 c -0.003,0.01 -0.005,0.0205 -0.008,0.0322 -0.002,0.0116 -0.005,0.024 -0.006,0.0369 h -10e-5 c -0.008,0.0608 -0.006,0.1303 0.034,0.1626 0.0361,0.0294 0.0978,-0.0119 0.1269,-0.0338 l 6e-4,-8e-4 0.003,-0.002 v -1e-4 c 0.0831,-0.0638 0.2418,-0.1651 0.3221,-0.1055 z"
   inkscape:connector-curvature="0"
   style="fill:#f0e043;fill-rule:nonzero" />

    <g
   id="g25">
     <circle
   id="_161298984"
   class="fil0"
   transform="matrix(0.0584534,-0.0748165,0.0748169,0.058453,111.047,137.62)"
   r="5.3600001"
   cx="0"
   cy="0"
   style="fill:#000000" />

     <circle
   id="_161299008"
   class="fil6"
   transform="matrix(0.040681,-0.052069,0.052069,0.0406805,111.047,137.62)"
   r="5.3600001"
   cx="0"
   cy="0"
   style="fill:#f0e043" />

     <path
   id="_161299272"
   class="fil3"
   d="m 110.046,138.842 2e-4,-1e-4 3e-4,-2e-4 2e-4,-3e-4 7e-4,-3e-4 v 10e-5 c 0.0192,-0.0107 0.0384,-0.0193 0.0574,-0.0261 0.0193,-0.007 0.039,-0.012 0.0584,-0.0154 l 2e-4,2e-4 c 0.1082,-0.019 0.21,0.0168 0.2564,0.1003 l 2e-4,4e-4 h 1e-4 c 0.009,0.0172 0.0161,0.0355 0.0199,0.0547 0.004,0.0186 0.005,0.0376 0.003,0.0564 h -2e-4 c -0.007,0.0874 -0.0701,0.18 -0.1692,0.2354 v 1e-4 l -2e-4,1e-4 -10e-4,7e-4 c -0.0682,0.0377 -0.1421,0.0518 -0.2065,0.0442 -0.0714,-0.008 -0.1322,-0.0433 -0.1655,-0.1025 v 0 l -2e-4,-3e-4 -4e-4,-9e-4 -1e-4,1e-4 c -0.033,-0.0598 -0.0305,-0.1301 3e-4,-0.1956 0.0274,-0.0582 0.0782,-0.1131 0.1461,-0.151 z"
   inkscape:connector-curvature="0"
   style="fill:#000000;fill-rule:nonzero" />

     <path
   id="_161561784"
   class="fil5"
   d="m 110.055,139.132 c 0.0707,0.0333 0.174,-0.0241 0.2132,-0.0818 0.0101,-0.0148 0.0166,-0.0303 0.0187,-0.0447 l 1e-4,-1e-4 c 0.005,-0.033 -0.0169,-0.0496 -0.0485,-0.0542 l -6e-4,-1e-4 -1e-4,-1e-4 c -0.0101,-0.001 -0.0206,-0.002 -0.0313,-9e-4 v 1e-4 c -0.061,0.005 -0.1242,0.0406 -0.1578,0.0917 -0.018,0.0274 -0.033,0.0716 0.006,0.0901 z"
   inkscape:connector-curvature="0"
   style="fill:#f0e043;fill-rule:nonzero" />

    </g>

   </g>
      <g
         id="g31"
         transform="matrix(10.432028,0,0,10.428454,-706.85999,-948.67344)"
         style="fill-rule:evenodd">
    <path
   id="_161561208"
   class="fil3"
   d="m 94.8536,136.196 c -0.1605,0.0344 -0.4196,-0.0688 -0.5463,-0.1082 -0.0871,-0.0271 -0.1608,-0.0174 -0.2113,0.0146 -0.1447,0.0918 -0.0523,0.2678 0.0523,0.3481 -0.0562,0.1265 0.0368,0.2797 0.1409,0.3482 -0.0454,0.1431 0.0549,0.2953 0.1777,0.3622 -0.0933,0.3248 0.2194,0.6743 0.5091,0.7472 0.3838,0.0965 0.8078,-0.003 1.1998,-0.042 0.3303,0.3434 0.681,0.6621 1.0525,0.9554 0.3231,0.2552 0.6624,0.4915 1.018,0.7087 0.118,0.072 1.2263,0.8304 1.4743,0.6032 0.1577,-0.1444 -0.1345,-0.4344 0.0602,-0.301 0.0169,0.01 0.0336,0.0199 0.0458,0.0293 l 2e-4,2e-4 h 10e-5 l 5e-4,4e-4 h 1e-4 v 0 c 0.0915,0.0717 0.2207,0.1182 0.3219,0.037 0.1147,-0.0919 0.1093,-0.2719 0.0729,-0.3991 -0.0757,-0.2646 -0.0585,-0.5388 -0.0734,-0.81 -0.0371,-0.6747 -0.141,-1.3026 -0.3083,-1.886 -0.0887,-0.3092 -0.1961,-0.6068 -0.3222,-0.8927 0.3898,-0.507 0.5143,-1.553 -0.0192,-2.0055 -0.0347,-0.0295 -0.0716,-0.054 -0.1105,-0.073 0.0099,-0.1059 -0.0354,-0.2174 -0.1054,-0.2957 -0.0489,-0.0547 -0.1163,-0.0976 -0.1911,-0.1018 -0.0132,-0.1426 -0.0877,-0.2785 -0.2383,-0.3086 -0.024,-0.1123 -0.174,-0.2582 -0.3019,-0.2154 v -1e-4 c -0.0456,0.0153 -0.0757,0.0511 -0.0777,0.1117 -0.0117,0.3522 -0.0522,0.7103 -0.1866,1.0382 -0.1022,-0.108 -0.2086,-0.2135 -0.3194,-0.3164 -0.0133,-0.0123 -0.0266,-0.0246 -0.04,-0.0368 l 0.0112,-0.1092 c 0.0427,-0.4168 0.0896,-0.874 -0.0094,-1.1759 -0.0552,-0.1685 -0.2049,-0.3766 -0.4064,-0.353 -0.0385,-0.1253 -0.1505,-0.2598 -0.2958,-0.2389 h -1e-4 c -0.0412,-0.1347 -0.1261,-0.286 -0.2885,-0.2789 -0.0564,-0.1106 -0.1897,-0.1843 -0.3025,-0.1072 -0.0375,0.0256 -0.0599,0.0643 -0.0573,0.105 0.013,0.2068 0.0256,0.4136 0.0226,0.611 -0.0025,0.1618 -0.0154,0.3186 -0.0471,0.4661 -0.0991,-0.0698 -0.1986,-0.139 -0.2983,-0.2079 0.0128,-0.3758 0.0696,-0.817 -0.1027,-1.1575 -0.0853,-0.1685 -0.2263,-0.2807 -0.4596,-0.247 -0.0496,-0.1658 -0.2249,-0.3171 -0.4053,-0.2517 -0.0543,-0.1308 -0.1807,-0.2697 -0.3366,-0.2266 l -2e-4,1e-4 c -0.0152,0.004 -0.0295,0.0102 -0.0428,0.0176 -0.0571,-0.0743 -0.1492,-0.1401 -0.2462,-0.1043 -0.0277,0.0103 -0.051,0.0276 -0.0684,0.049 l 1e-4,2e-4 c -0.055,0.0678 -0.0302,0.1297 -0.0156,0.2033 0.026,0.1309 0.0134,0.2754 -0.0013,0.4134 -0.1047,-0.1062 -0.2022,-0.2153 -0.2903,-0.3276 l -0.0042,-0.005 c -0.1975,-0.2527 -0.3712,-0.5169 -0.5203,-0.7953 -0.2622,-0.4897 -0.4393,-1.0276 -0.5724,-1.5658 -0.0578,-0.2339 -0.1039,-0.4769 -0.1289,-0.7395 -0.0101,-0.1056 -0.0674,-0.2027 -0.1847,-0.1915 -0.0593,0.006 -0.1221,0.04 -0.1712,0.0786 l -4e-4,3e-4 c -0.1492,0.1191 -0.1994,0.3068 -0.2022,0.4896 -0.0223,-8e-4 -0.0442,0.002 -0.0652,0.007 l -1e-4,-1e-4 c -0.1708,0.0442 -0.2481,0.2532 -0.2054,0.4116 -0.2317,0.0918 -0.2837,0.3787 -0.1625,0.5737 -0.1428,0.0927 -0.1915,0.2564 -0.1658,0.399 -0.1882,-0.0954 -0.4184,-0.1103 -0.5903,0.0216 -0.18,-0.1926 -0.5227,-0.1958 -0.7149,-0.0201 -0.1699,-0.1825 -0.4024,-0.1946 -0.6027,-0.0498 -0.1802,-0.1462 -0.4847,-0.2634 -0.6721,-0.0631 -0.204,0.2178 0.0117,0.3881 0.2193,0.4892 0.2169,0.1057 0.4482,0.1925 0.6719,0.281 0.3774,0.1494 0.8237,0.326 1.233,0.5518 l 1e-4,10e-5 c 0.6509,0.3589 1.1887,1.028 1.5729,1.7333 -0.1566,-0.0256 -0.3076,-0.0743 -0.4522,-0.1425 -0.1223,-0.0577 -0.2305,-0.1087 -0.3447,0.0146 -0.0076,0.008 -0.0153,0.0173 -0.023,0.0271 h 10e-5 c -0.078,0.1 -0.0423,0.2373 -10e-4,0.3442 -0.1495,0.2359 -0.0753,0.5124 0.1081,0.6994 0.3794,0.3868 1.0589,0.6591 1.5057,0.9297 0.3056,0.6915 0.6516,1.3349 1.0389,1.9289 z"
   inkscape:connector-curvature="0"
   style="fill:#000000;fill-rule:nonzero" />

    <path
   id="_161561592"
   class="fil5"
   d="m 99.3332,135.878 c -0.4742,-0.0377 -0.9559,0.0438 -1.3912,0.2381 -0.3099,-0.2183 -0.6086,-0.4524 -0.899,-0.6961 -0.1466,-0.1232 -0.3299,-0.0398 -0.3894,0.1289 -0.0861,0.2443 -0.1124,0.5037 -0.1358,0.76 -0.0128,0.1406 0.061,0.2437 0.1853,0.3021 0.0857,0.0403 0.1749,0.0718 0.2646,0.1014 v 0 c 0.0282,0.009 0.0566,0.0177 0.0849,0.0265 -0.3054,0.3148 -0.5365,0.6996 -0.6705,1.1177 -0.1565,-0.1586 -0.3089,-0.323 -0.4568,-0.4932 -0.9347,-1.0753 -1.6459,-2.3287 -2.176,-3.6485 -0.1628,-0.4055 -0.3159,-0.8265 -0.5139,-1.2279 -0.3782,-0.7665 -0.8275,-1.351 -1.44,-1.7858 -0.4579,-0.325 -1.0034,-0.5292 -1.5228,-0.7348 l -3e-4,-1e-4 c -0.0517,-0.0204 -0.0782,-0.0308 -0.1047,-0.0412 -0.1868,-0.0734 -0.3764,-0.1477 -0.5558,-0.2351 h -1e-4 l -0.015,-0.007 h -1e-4 c -0.0526,-0.0255 -0.118,-0.0571 -0.1588,-0.0953 -0.0399,-0.0374 -0.055,-0.0837 -8e-4,-0.1416 l 2e-4,-1e-4 6e-4,-7e-4 v 0 c 0.0178,-0.0189 0.0377,-0.0326 0.059,-0.0419 0.1748,-0.0769 0.3757,0.0927 0.4957,0.2051 0.2217,-0.2387 0.4443,-0.1812 0.6024,0.0987 0.1805,-0.2797 0.5469,-0.3173 0.6929,0.0125 0.2565,-0.3138 0.5166,-0.1613 0.8028,0.0205 -0.0282,-0.2623 -0.1077,-0.4935 0.2072,-0.6231 -0.1605,-0.2607 -0.1917,-0.4649 0.1582,-0.5329 -0.171,-0.198 -0.013,-0.5087 0.2128,-0.2799 -0.0113,-0.2055 -0.0482,-0.4681 0.1332,-0.613 0.0571,-0.0447 0.0977,-0.0859 0.1065,0.007 0.1204,1.0552 0.4838,2.0833 1.0657,2.9256 0.2997,0.4336 0.6656,0.7923 1.0797,1.1215 0.3329,0.2646 0.689,0.5094 1.0248,0.7404 0.6184,0.4254 1.233,0.8618 1.7841,1.3736 0.6163,0.5724 1.1184,1.2548 1.4704,2.0193 z m -0.9196,-1.7164 c 0.1378,-0.3168 0.1906,-0.6625 0.2095,-1.0052 0.0052,-0.0936 -0.0038,-0.1612 0.0666,-0.0195 0.0204,0.0411 0.0254,0.0906 0.0353,0.137 0.2253,-0.0247 0.2292,0.1732 0.2445,0.3346 0.2308,-0.0869 0.3031,0.1831 0.2469,0.3166 0.2308,0.0724 0.3728,0.2916 0.4367,0.5166 0.1173,0.4133 0.0145,0.9453 -0.1933,1.2828 -0.2711,-0.5686 -0.6242,-1.0952 -1.0462,-1.5629 z m -1.7162,-1.4633 c 0.0607,-0.2552 0.0651,-0.5214 0.0561,-0.7825 -0.0027,-0.0812 -0.0072,-0.1651 -0.0122,-0.2499 l 1e-4,-2e-4 v -2e-4 h -1e-4 c -7e-4,-0.0112 -0.0024,-0.0239 -0.0041,-0.037 h -1e-4 c -0.0039,-0.029 -0.0082,-0.0614 -0.0023,-0.0698 8e-4,-10e-4 0.0103,0.004 0.0358,0.0217 l -1e-4,1e-4 c 0.0454,0.0317 0.0737,0.0865 0.0999,0.1336 0.1806,-0.0545 0.2405,0.197 0.2793,0.3242 0.1858,-0.1342 0.2324,0.0745 0.2852,0.2155 0.1391,-0.0721 0.2396,-0.0113 0.3077,0.1201 0.0157,0.0302 0.0293,0.0633 0.0408,0.0982 v 0 l 1e-4,4e-4 v 1e-4 c 0.0859,0.2625 0.0457,0.6859 0.0056,1.0779 -0.3473,-0.3046 -0.7159,-0.5839 -1.0917,-0.8522 z m -1.9767,-1.4773 c 0.0172,-0.1809 0.0464,-0.3637 0.0111,-0.5446 -0.0074,-0.0381 -0.0481,-0.1038 0.0178,-0.0752 0.0678,0.0294 0.1153,0.0943 0.1529,0.1553 0.1515,-0.2005 0.2839,0.0736 0.3564,0.212 0.1527,-0.1911 0.3123,0.0593 0.3359,0.2266 0.0839,-0.0197 0.1734,-0.0384 0.2585,-0.0125 0.065,0.0197 0.1202,0.0656 0.1629,0.1498 l 2e-4,6e-4 c 0.145,0.2871 0.1088,0.6457 0.0917,0.9543 -0.4797,-0.3302 -0.9632,-0.6652 -1.3874,-1.0663 z m -1.043,2.7913 c -0.3217,-0.175 -0.6543,-0.3337 -0.9579,-0.5398 -0.1875,-0.1273 -0.4944,-0.3441 -0.4486,-0.6168 0.012,-0.0713 0.0484,-0.1385 0.1086,-0.1985 -0.0459,-0.0663 -0.1387,-0.2471 -0.0196,-0.2979 0.0625,-0.0267 0.2474,0.0799 0.3031,0.1004 0.1344,0.0495 0.2735,0.0835 0.4168,0.1 0.2367,0.4656 0.3953,0.9709 0.5976,1.4526 z m 2.3352,3.7181 c -0.3279,0.042 -0.6721,0.11 -0.9994,0.0282 -0.2781,-0.0694 -0.5409,-0.3938 -0.359,-0.6694 -0.1386,-0.0681 -0.2685,-0.1572 -0.1846,-0.3402 -0.1363,-0.0761 -0.2497,-0.1762 -0.1244,-0.3294 -0.0584,-0.0346 -0.1932,-0.1216 -0.1691,-0.1838 0.0123,-0.0319 0.1298,0.008 0.19,0.0288 v 0 c 0.0133,0.005 0.0242,0.008 0.0325,0.0106 0.1586,0.0439 0.3529,0.1038 0.5178,0.0624 0.3292,0.4912 0.6946,0.9585 1.0962,1.3928 z m 1.7459,-1.5245 c -0.2006,0.1076 -0.3874,0.2384 -0.5571,0.3897 -0.1428,-0.0412 -0.2872,-0.0837 -0.422,-0.147 -0.056,-0.0263 -0.0889,-0.0584 -0.0829,-0.1237 0.022,-0.2412 0.0449,-0.4861 0.126,-0.7161 0.0178,-0.0505 0.0548,-0.0937 0.1049,-0.0515 0.2692,0.226 0.5454,0.4438 0.8311,0.6486 z m -1.2324,1.7942 c 0.1323,-0.4685 0.3937,-0.8958 0.7488,-1.2285 0.5611,-0.5254 1.3643,-0.7952 2.1415,-0.7049 0.0623,0.1475 0.1192,0.2973 0.1709,0.4488 -0.6489,0.0136 -1.2579,0.2846 -1.7297,0.7238 -0.363,0.3381 -0.6585,0.7547 -0.8198,1.2267 -0.1758,-0.1494 -0.3465,-0.3049 -0.5117,-0.4659 z m 3.075,1.6329 c -0.1511,0.1102 0.0733,0.333 0.0146,0.3867 v 0 l -5e-4,5e-4 c -0.0863,0.0717 -0.6746,-0.2565 -1.0325,-0.4673 -0.4879,-0.2875 -0.9573,-0.6023 -1.3963,-0.9627 0.1389,-0.4485 0.4095,-0.8484 0.7458,-1.1738 v 0 l 0.002,-0.002 v 0 c 0.0093,-0.009 0.018,-0.0174 0.0253,-0.0243 0.0099,-0.009 0.0187,-0.0177 0.0257,-0.0242 h 1e-4 c 0.4536,-0.4213 1.0242,-0.673 1.6604,-0.6715 0.1064,0.342 0.1872,0.6917 0.2451,1.0451 0.0506,0.3082 0.0852,0.6281 0.1034,0.9598 v 0 2e-4 2e-4 c 0.0038,0.0691 0.0057,0.1397 0.0076,0.2102 0.006,0.2126 0.0115,0.4245 0.0712,0.6335 h 1e-4 l 10e-4,0.004 v 0 c 0.003,0.01 0.005,0.0206 0.008,0.0323 0.002,0.0116 0.004,0.0241 0.006,0.037 h 1e-4 c 0.008,0.0608 0.004,0.1303 -0.0355,0.1623 -0.0364,0.0291 -0.0977,-0.0128 -0.1266,-0.0349 l -6e-4,-9e-4 -0.0033,-0.002 v 0 c -0.0825,-0.0646 -0.2404,-0.1672 -0.3211,-0.1083 z"
   inkscape:connector-curvature="0"
   style="fill:#f0e043;fill-rule:nonzero" />

    <g
   id="g35">
     <circle
   id="_161561736"
   class="fil0"
   transform="matrix(-0.0577983,-0.0753238,-0.0753242,0.0577979,98.8817,137.721)"
   r="5.3600001"
   cx="0"
   cy="0"
   style="fill:#000000" />

     <circle
   id="_161560824"
   class="fil6"
   transform="matrix(-0.0402251,-0.052422,-0.052422,0.0402246,98.8817,137.721)"
   r="5.3600001"
   cx="0"
   cy="0"
   style="fill:#f0e043" />

     <path
   id="_161561016"
   class="fil3"
   d="m 99.8726,138.952 -2e-4,-1e-4 -3e-4,-2e-4 -2e-4,-2e-4 -6e-4,-4e-4 -1e-4,1e-4 c -0.0191,-0.0108 -0.0382,-0.0196 -0.0571,-0.0265 -0.0193,-0.007 -0.0389,-0.0124 -0.0583,-0.0159 l -2e-4,10e-5 c -0.1081,-0.0198 -0.2102,0.015 -0.2573,0.0981 l -1e-4,4e-4 h -1e-4 c -0.0097,0.0171 -0.0164,0.0354 -0.0204,0.0545 -0.0039,0.0186 -0.0051,0.0376 -0.0037,0.0564 h 2e-4 c 0.0065,0.0875 0.0685,0.1806 0.1672,0.2369 v 0 l 10e-5,1e-4 0.0012,7e-4 c 0.0678,0.0384 0.1416,0.0531 0.2061,0.0461 0.0715,-0.008 0.1325,-0.0422 0.1663,-0.1011 l 10e-5,1e-4 2e-4,-4e-4 4e-4,-9e-4 1e-4,1e-4 c 0.0335,-0.0594 0.0316,-0.1298 0.001,-0.1956 -0.0268,-0.0584 -0.0772,-0.1137 -0.1446,-0.1522 v -1e-4 z"
   inkscape:connector-curvature="0"
   style="fill:#000000;fill-rule:nonzero" />

     <path
   id="_161561424"
   class="fil5"
   d="m 99.8601,139.241 c -0.071,0.0327 -0.1738,-0.0256 -0.2125,-0.0837 -0.01,-0.0149 -0.0164,-0.0305 -0.0183,-0.0449 l -1e-4,-1e-4 c -0.0045,-0.033 0.0173,-0.0494 0.049,-0.0538 h 6e-4 v -1e-4 c 0.0101,-0.001 0.0207,-0.001 0.0314,-6e-4 v 1e-4 c 0.0609,0.005 0.1238,0.0416 0.1569,0.093 0.0179,0.0276 0.0324,0.0719 -0.007,0.0901 z"
   inkscape:connector-curvature="0"
   style="fill:#f0e043;fill-rule:nonzero" />

    </g>

   </g>
      <g
         id="g41"
         transform="matrix(10.432028,0,0,10.428454,-706.85999,-948.67344)"
         style="fill-rule:evenodd">
    <path
   id="_161561160"
   class="fil3"
   d="m 103.05,132.5 c -0.1457,-0.0646 -0.2904,-0.2938 -0.3675,-0.3972 -0.053,-0.071 -0.1164,-0.1055 -0.1744,-0.1092 -0.1662,-0.0106 -0.1941,0.1806 -0.1578,0.3034 -0.1164,0.0673 -0.1309,0.2409 -0.0883,0.3543 -0.1174,0.0865 -0.1255,0.2634 -0.0673,0.3861 -0.2589,0.202 -0.2128,0.6554 -0.0268,0.8782 0.2465,0.2952 0.6367,0.4592 0.967,0.6526 0.0633,0.4587 0.1569,0.9095 0.2812,1.3523 0.1081,0.3852 0.2398,0.7648 0.3952,1.1387 0.0515,0.1241 0.4892,1.3535 0.814,1.3166 0.2065,-0.0234 0.1425,-0.4182 0.2193,-0.2021 0.008,0.0174 0.0151,0.0348 0.0193,0.0491 l 1e-4,3e-4 v 1e-4 l 2e-4,6e-4 v 0 10e-5 c 0.031,0.1086 0.106,0.219 0.2319,0.213 0.1427,-0.007 0.2412,-0.1513 0.2853,-0.272 0.0918,-0.2512 0.262,-0.4569 0.4053,-0.6787 0.3564,-0.5514 0.6335,-1.1042 0.8353,-1.6584 0.107,-0.2938 0.1927,-0.5889 0.2569,-0.8857 0.5961,-0.1757 1.2917,-0.9267 1.131,-1.5873 -0.0104,-0.0429 -0.0254,-0.0833 -0.0452,-0.1205 0.0683,-0.0776 0.0965,-0.1911 0.0862,-0.2926 -0.007,-0.071 -0.0357,-0.1432 -0.092,-0.1892 0.0711,-0.1196 0.0902,-0.269 -0.011,-0.3787 0.0454,-0.102 0.0108,-0.3024 -0.1141,-0.3418 v -1e-4 c -0.0446,-0.014 -0.0887,-0.003 -0.1249,0.0433 -0.2105,0.2702 -0.447,0.5285 -0.74,0.7094 -0.0185,-0.1433 -0.0419,-0.287 -0.0702,-0.4312 -0.003,-0.0172 -0.007,-0.0345 -0.0103,-0.0517 l 0.0712,-0.0795 c 0.2717,-0.3031 0.5697,-0.6357 0.6645,-0.9295 0.0529,-0.164 0.0541,-0.4131 -0.1177,-0.5098 0.0413,-0.1204 0.0301,-0.2902 -0.096,-0.3567 l -10e-5,-1e-4 c 0.0447,-0.1294 0.0644,-0.2968 -0.0673,-0.384 0.0188,-0.1192 -0.0438,-0.2533 -0.1766,-0.2572 -0.044,-0.001 -0.0838,0.0164 -0.105,0.0498 -0.1079,0.17 -0.2162,0.3398 -0.3313,0.4931 -0.0944,0.1258 -0.1942,0.2417 -0.3034,0.3395 -0.038,-0.1115 -0.0766,-0.2228 -0.1157,-0.3339 0.2248,-0.288 0.5216,-0.6023 0.5807,-0.9684 0.0293,-0.1811 -0.0174,-0.3499 -0.22,-0.4568 0.0557,-0.1586 0.004,-0.3777 -0.1748,-0.4294 0.0322,-0.1338 0.0122,-0.3153 -0.135,-0.3704 h -2e-4 c -0.0144,-0.005 -0.029,-0.009 -0.0437,-0.0107 -0.002,-0.0911 -0.0372,-0.1954 -0.1339,-0.2226 -0.0276,-0.008 -0.0558,-0.008 -0.0818,-6e-4 v 2e-4 c -0.082,0.0219 -0.0978,0.0847 -0.1284,0.1509 -0.0544,0.1177 -0.1469,0.2241 -0.2373,0.3242 -0.0216,-0.1433 -0.0359,-0.2849 -0.041,-0.4234 l -2e-4,-0.007 c -0.0108,-0.3114 0.004,-0.6184 0.0455,-0.9224 0.0737,-0.5347 0.242,-1.0587 0.4449,-1.5578 0.0882,-0.2168 0.1908,-0.4341 0.3213,-0.6548 0.0524,-0.0888 0.0629,-0.1978 -0.0357,-0.256 -0.0499,-0.0295 -0.1188,-0.0384 -0.1796,-0.0361 h -5e-4 c -0.1852,0.008 -0.332,0.1272 -0.4386,0.2693 -0.0171,-0.0134 -0.0357,-0.0239 -0.0554,-0.0317 l 10e-5,-1e-4 c -0.1596,-0.0628 -0.3398,0.0573 -0.3967,0.2062 -0.2346,-0.0603 -0.4394,0.1355 -0.4555,0.358 -0.1653,-0.009 -0.2971,0.0921 -0.3584,0.2189 -0.0935,-0.1825 -0.2659,-0.3258 -0.4763,-0.3204 -0.0314,-0.2542 -0.299,-0.4525 -0.5504,-0.4243 -0.0293,-0.2406 -0.2051,-0.3829 -0.4452,-0.3835 -0.0581,-0.2179 -0.2305,-0.484 -0.4922,-0.4337 -0.2848,0.0546 -0.2126,0.3117 -0.1072,0.5098 0.1101,0.207 0.2423,0.4074 0.3675,0.6048 0.2112,0.333 0.4611,0.7269 0.6538,1.1382 l 1e-4,2e-4 c 0.3064,0.6541 0.3467,1.4872 0.2456,2.2611 -0.1084,-0.1096 -0.1993,-0.2342 -0.2739,-0.3704 -0.0632,-0.1152 -0.1191,-0.2171 -0.2793,-0.1855 -0.0107,0.002 -0.0219,0.005 -0.0335,0.008 v 0 c -0.1184,0.034 -0.1689,0.1623 -0.1974,0.27 -0.2524,0.0999 -0.3521,0.3597 -0.3148,0.6114 0.0772,0.5209 0.4556,1.1232 0.6522,1.5912 -0.155,0.718 -0.2507,1.4215 -0.2858,2.1096 z"
   inkscape:connector-curvature="0"
   style="fill:#000000;fill-rule:nonzero" />

    <path
   id="_161561400"
   class="fil5"
   d="m 106.753,134.809 c -0.3512,-0.3006 -0.7764,-0.5118 -1.2295,-0.6078 -0.1189,-0.3487 -0.2198,-0.7033 -0.3088,-1.0608 -0.0448,-0.1806 -0.2366,-0.2198 -0.3797,-0.1212 -0.2073,0.1428 -0.3762,0.3316 -0.541,0.5197 -0.0905,0.1032 -0.0914,0.2264 -0.027,0.3434 0.0442,0.0805 0.0964,0.1563 0.1499,0.2308 h 1e-4 c 0.017,0.0232 0.0343,0.0463 0.0515,0.0693 -0.4198,0.073 -0.8214,0.2433 -1.1656,0.4954 -0.0324,-0.2141 -0.0582,-0.4304 -0.0772,-0.6487 -0.1202,-1.3792 0.0371,-2.7707 0.3747,-4.111 0.1036,-0.4117 0.2239,-0.8301 0.2977,-1.2587 0.1408,-0.8185 0.1216,-1.5347 -0.1113,-2.2264 -0.1742,-0.5171 -0.4863,-0.9893 -0.777,-1.4477 l -1e-4,-3e-4 c -0.029,-0.0456 -0.0439,-0.0689 -0.0588,-0.0922 -0.1049,-0.1644 -0.2114,-0.3311 -0.3025,-0.5024 h -10e-5 l -0.008,-0.0143 v -10e-5 c -0.0268,-0.05 -0.0602,-0.1123 -0.0704,-0.1657 -0.01,-0.0521 0.005,-0.0971 0.0803,-0.1117 h 2e-4 l 9e-4,-1e-4 v -1e-4 c 0.0248,-0.005 0.0483,-0.004 0.0703,8e-4 0.1814,0.0395 0.2423,0.2876 0.2724,0.4445 0.3107,-0.0609 0.4528,0.1115 0.4171,0.4218 0.3017,-0.1167 0.6111,0.0631 0.5374,0.4058 0.3809,-0.1001 0.4982,0.1684 0.6193,0.4749 0.1277,-0.2223 0.1973,-0.4495 0.5188,-0.3714 0.0229,-0.2966 0.1151,-0.4749 0.4289,-0.3284 -0.0212,-0.2534 0.2805,-0.4073 0.3272,-0.0984 0.1086,-0.168 0.2296,-0.3954 0.455,-0.4057 0.0704,-0.003 0.1259,-0.0117 0.0799,0.0661 -0.5084,0.8981 -0.8102,1.9138 -0.8342,2.9083 -0.0122,0.512 0.0704,1.0031 0.2078,1.4984 0.1104,0.3982 0.2503,0.7941 0.3823,1.1676 0.2429,0.6877 0.4766,1.3819 0.6173,2.099 0.1573,0.8021 0.1619,1.6253 0.002,2.4273 z m 0.258,-1.8744 c 0.2893,-0.1703 0.5283,-0.4118 0.739,-0.6704 0.0576,-0.0706 0.0892,-0.1288 0.0636,0.0227 -0.007,0.044 -0.0318,0.0858 -0.0506,0.1279 0.1911,0.1093 0.0812,0.2671 10e-4,0.4026 0.231,0.0637 0.1336,0.3172 0.0131,0.39 0.14,0.1889 0.1264,0.4422 0.048,0.6556 -0.1439,0.3919 -0.5287,0.7513 -0.885,0.8977 0.1119,-0.6018 0.1353,-1.2175 0.0709,-1.8261 z m -0.5127,-2.1308 c 0.1936,-0.166 0.3491,-0.3727 0.4913,-0.5829 0.0442,-0.0655 0.0887,-0.134 0.1332,-0.2035 l 1e-4,-1e-4 2e-4,-1e-4 -10e-5,-1e-4 c 0.006,-0.009 0.0118,-0.0201 0.0179,-0.0314 l -1e-4,-1e-4 c 0.0136,-0.025 0.0287,-0.0529 0.0381,-0.0562 0.001,-4e-4 0.006,0.009 0.0157,0.0376 v 0 c 0.0175,0.0509 0.009,0.1101 0.002,0.1621 0.1731,0.0604 0.0765,0.2922 0.0342,0.4144 0.2228,7e-4 0.1402,0.1914 0.101,0.3323 0.1506,0.0228 0.1949,0.1281 0.1733,0.2703 -0.005,0.0327 -0.0132,0.0665 -0.0241,0.1005 v 0 l -10e-5,3e-4 v 1e-4 c -0.0826,0.2554 -0.3561,0.5652 -0.6116,0.8504 -0.099,-0.4379 -0.229,-0.868 -0.3711,-1.2936 z m -0.7094,-2.2906 c 0.1169,-0.1324 0.2443,-0.2594 0.32,-0.4218 0.0159,-0.0341 0.0215,-0.109 0.057,-0.0489 0.0364,0.0619 0.0367,0.14 0.0313,0.2094 0.2337,-0.071 0.1811,0.2202 0.159,0.3703 0.2292,-0.0629 0.2116,0.225 0.1345,0.3701 0.0772,0.0324 0.1582,0.0689 0.2103,0.1378 0.0399,0.0527 0.057,0.1203 0.0424,0.2108 l -10e-5,7e-4 c -0.0501,0.3085 -0.2835,0.5696 -0.4733,0.8024 -0.1883,-0.5336 -0.3769,-1.0732 -0.4811,-1.6308 z m -2.4148,1.5978 c -0.1529,-0.3214 -0.3235,-0.6362 -0.4444,-0.9717 -0.0746,-0.2072 -0.192,-0.553 -1e-4,-0.7411 0.0501,-0.0492 0.1172,-0.0812 0.1987,-0.0939 0.002,-0.0784 0.0323,-0.2735 0.1549,-0.2454 0.0643,0.0148 0.1488,0.2042 0.1809,0.2521 0.0773,0.1157 0.1672,0.222 0.2704,0.3168 -0.08,0.5012 -0.2441,0.989 -0.3604,1.4832 z m -0.2893,4.2566 c -0.2817,-0.1543 -0.5911,-0.2976 -0.8016,-0.5489 -0.1789,-0.2134 -0.2001,-0.6186 0.1003,-0.7312 -0.0699,-0.1328 -0.1211,-0.277 0.0494,-0.373 -0.0637,-0.1377 -0.0956,-0.2811 0.0904,-0.3299 -0.0261,-0.0605 -0.0823,-0.2059 -0.0279,-0.2411 0.0279,-0.0181 0.0974,0.0806 0.133,0.1312 v 1e-4 c 0.008,0.0111 0.0142,0.0203 0.0194,0.0268 0.0996,0.1251 0.2181,0.2833 0.3713,0.345 -0.0219,0.5742 -0.002,1.1502 0.0657,1.721 z m 2.2433,-0.2005 c -0.2191,-0.03 -0.4407,-0.034 -0.6605,-0.012 -0.0887,-0.114 -0.1779,-0.2299 -0.2477,-0.3568 -0.0289,-0.0526 -0.0364,-0.0967 0.006,-0.1446 0.1551,-0.177 0.3131,-0.3563 0.5082,-0.4907 0.0428,-0.0296 0.0966,-0.0424 0.1119,0.0194 0.0824,0.3314 0.1751,0.6605 0.2825,0.9847 z m -1.9938,0.7059 c 0.3717,-0.2926 0.8213,-0.4791 1.2905,-0.5377 0.7412,-0.0923 1.5267,0.1547 2.0859,0.6698 -0.0353,0.1515 -0.0761,0.3018 -0.1221,0.4504 -0.5177,-0.3602 -1.1513,-0.4952 -1.7731,-0.4195 -0.4784,0.0582 -0.9488,0.2168 -1.3453,0.4956 -0.0527,-0.2179 -0.0981,-0.4376 -0.1359,-0.6586 z m 1.4837,3.0406 c -0.1818,2e-4 -0.1327,0.3036 -0.2095,0.3122 v 0 l -7e-4,1e-4 c -0.1088,0.007 -0.3836,-0.587 -0.5444,-0.9572 -0.2192,-0.5048 -0.4083,-1.0205 -0.5474,-1.5545 0.3655,-0.2732 0.8067,-0.4329 1.2569,-0.4964 h 10e-5 l 0.003,-4e-4 v 0 c 0.0125,-0.002 0.0241,-0.003 0.0338,-0.005 0.013,-0.002 0.0248,-0.003 0.034,-0.004 h 1e-4 c 0.5972,-0.072 1.1895,0.0563 1.6887,0.4211 -0.1118,0.3295 -0.2481,0.6506 -0.4045,0.9614 -0.1364,0.2711 -0.2921,0.5423 -0.4673,0.8135 v 0 l -10e-5,1e-4 -1e-4,10e-5 c -0.0365,0.0565 -0.0753,0.1131 -0.1141,0.1696 -0.117,0.1704 -0.2336,0.3402 -0.306,0.5386 v 0 l -10e-4,0.004 h -1e-4 c -0.003,0.009 -0.008,0.0192 -0.0124,0.0298 -0.005,0.0105 -0.0102,0.0215 -0.0163,0.0325 l 1e-4,1e-4 c -0.0288,0.0522 -0.071,0.1049 -0.1206,0.1073 -0.0452,0.002 -0.0695,-0.0659 -0.0796,-0.0998 v -0.001 l -10e-4,-0.004 v -1e-4 c -0.028,-0.0978 -0.0934,-0.2687 -0.1905,-0.2685 z"
   inkscape:connector-curvature="0"
   style="fill:#f0e043;fill-rule:nonzero" />

    <g
   id="g45">
     <circle
   id="_161561328"
   class="fil0"
   transform="matrix(-0.00238382,-0.0922289,-0.0922293,0.0023838,105.344,136)"
   r="5.3600001"
   cx="0"
   cy="0"
   style="fill:#000000" />

     <circle
   id="_161561256"
   class="fil6"
   transform="matrix(-0.00165903,-0.0641872,-0.0641872,0.00165901,105.344,136)"
   r="5.3600001"
   cx="0"
   cy="0"
   style="fill:#f0e043" />

     <path
   id="_161561088"
   class="fil3"
   d="m 105.42,137.534 -1e-4,-2e-4 -1e-4,-4e-4 v -2e-4 l -3e-4,-7e-4 -1e-4,1e-4 c -0.009,-0.0194 -0.0188,-0.0373 -0.0297,-0.0535 -0.0112,-0.0166 -0.0235,-0.032 -0.0368,-0.0459 h -2e-4 c -0.0736,-0.0773 -0.1737,-0.1083 -0.2582,-0.0698 l -4e-4,2e-4 -1e-4,-2e-4 c -0.0173,0.008 -0.0331,0.0185 -0.0471,0.0313 -0.0137,0.0124 -0.0255,0.0266 -0.0351,0.0422 l 2e-4,1e-4 c -0.045,0.0725 -0.0494,0.1811 -0.004,0.2817 h -10e-5 l 10e-5,2e-4 5e-4,0.001 c 0.0314,0.0688 0.0809,0.1226 0.1357,0.1539 0.0606,0.0347 0.1282,0.0426 0.1884,0.0156 v 1e-4 l 4e-4,-2e-4 8e-4,-4e-4 1e-4,1e-4 c 0.0603,-0.0276 0.099,-0.084 0.1128,-0.153 0.0123,-0.0612 0.004,-0.1335 -0.0267,-0.2023 v 0 z"
   inkscape:connector-curvature="0"
   style="fill:#000000;fill-rule:nonzero" />

     <path
   id="_162613800"
   class="fil5"
   d="m 105.245,137.754 c -0.0746,-0.0149 -0.122,-0.1195 -0.1193,-0.1872 7e-4,-0.0174 0.005,-0.0333 0.0113,-0.0458 v -10e-5 c 0.0153,-0.0286 0.0418,-0.0289 0.0693,-0.0143 l 4e-4,3e-4 h 1e-4 c 0.009,0.005 0.0171,0.0106 0.025,0.0174 v 1e-4 c 0.045,0.0388 0.0735,0.1035 0.0701,0.1628 -0.002,0.0319 -0.0155,0.075 -0.0569,0.0668 z"
   inkscape:connector-curvature="0"
   style="fill:#f0e043;fill-rule:nonzero" />

    </g>

   </g>
    </g>
  </g>
</svg>
